HIERARCHY
ROOT Hips
{
	OFFSET 0.000000 0.000000 0.000000 
	CHANNELS 6 Xposition Yposition Zposition Xrotation Yrotation Zrotation
	JOINT Spine
	{
		OFFSET 0.000000 1.722820 2.584230 
		CHANNELS 3 Xrotation Yrotation Zrotation
		JOINT Spine1
		{
			OFFSET 0.000000 0.598330 3.393290 
			CHANNELS 3 Xrotation Yrotation Zrotation
			JOINT Spine2
			{
				OFFSET 0.000000 0.300310 3.432520 
				CHANNELS 3 Xrotation Yrotation Zrotation
				JOINT Spine3
				{
					OFFSET 0.000000 0.000000 3.445640 
					CHANNELS 3 Xrotation Yrotation Zrotation
					JOINT Neck
					{
						OFFSET 0.000000 -1.292100 9.044790 
						CHANNELS 3 Xrotation Yrotation Zrotation
						JOINT Head
						{
							OFFSET 0.000000 -0.822700 4.665770 
							CHANNELS 3 Xrotation Yrotation Zrotation
							End Site
							{
								OFFSET 0.000000 0.000010 5.577620 
							}
						}
					}
					JOINT RightShoulder
					{
						OFFSET -1.175120 -1.958530 6.345670 
						CHANNELS 3 Xrotation Yrotation Zrotation
						JOINT RightArm
						{
							OFFSET -5.836450 0.000000 0.000000 
							CHANNELS 3 Xrotation Yrotation Zrotation
							JOINT RightForeArm
							{
								OFFSET -10.886420 0.000000 0.000000 
								CHANNELS 3 Xrotation Yrotation Zrotation
								JOINT RightHand
								{
									OFFSET -10.194950 0.000000 0.000000 
									CHANNELS 3 Xrotation Yrotation Zrotation
									JOINT RightHandEnd
									{
										OFFSET -2.735920 0.000000 0.000000 
										CHANNELS 3 Xrotation Yrotation Zrotation
										End Site
										{
											OFFSET -2.735920 0.000000 0.000000 
										}
									}
									JOINT RightHandThumb1
									{
										OFFSET -1.094370 -1.823950 -0.729580 
										CHANNELS 3 Yrotation Xrotation Zrotation
										End Site
										{
											OFFSET -2.642700 -0.708110 0.000000 
										}
									}
								}
							}
						}
					}
					JOINT LeftShoulder
					{
						OFFSET 1.175120 -1.958530 6.345670 
						CHANNELS 3 Xrotation Yrotation Zrotation
						JOINT LeftArm
						{
							OFFSET 5.836450 0.000000 0.000000 
							CHANNELS 3 Xrotation Yrotation Zrotation
							JOINT LeftForeArm
							{
								OFFSET 10.886420 0.000000 0.000000 
								CHANNELS 3 Xrotation Yrotation Zrotation
								JOINT LeftHand
								{
									OFFSET 10.194950 0.000000 0.000000 
									CHANNELS 3 Xrotation Yrotation Zrotation
									JOINT LeftHandEnd
									{
										OFFSET 2.735920 0.000000 0.000000 
										CHANNELS 3 Xrotation Yrotation Zrotation
										End Site
										{
											OFFSET 2.735920 0.000000 0.000000 
										}
									}
									JOINT LeftHandThumb1
									{
										OFFSET 1.094370 -1.823950 -0.729580 
										CHANNELS 3 Yrotation Xrotation Zrotation
										End Site
										{
											OFFSET 2.642700 -0.708110 0.000000 
										}
									}
								}
							}
						}
					}
				}
			}
		}
	}
	JOINT RightUpLeg
	{
		OFFSET -3.486200 0.000000 -1.018440 
		CHANNELS 3 Xrotation Yrotation Zrotation
		JOINT RightLeg
		{
			OFFSET 0.000010 0.000000 -16.688210 
			CHANNELS 3 Xrotation Yrotation Zrotation
			JOINT RightFoot
			{
				OFFSET 0.000010 0.000000 -16.775360 
				CHANNELS 3 Xrotation Yrotation Zrotation
				JOINT RightToeBase
				{
					OFFSET 0.000000 -4.945160 -1.799890 
					CHANNELS 3 Xrotation Yrotation Zrotation
					End Site
					{
						OFFSET 0.000000 -2.820300 -0.000000 
					}
				}
			}
		}
	}
	JOINT LeftUpLeg
	{
		OFFSET 3.486200 0.000000 -1.018440 
		CHANNELS 3 Xrotation Yrotation Zrotation
		JOINT LeftLeg
		{
			OFFSET 0.000010 0.000000 -16.688210 
			CHANNELS 3 Xrotation Yrotation Zrotation
			JOINT LeftFoot
			{
				OFFSET 0.000010 0.000000 -16.775360 
				CHANNELS 3 Xrotation Yrotation Zrotation
				JOINT LeftToeBase
				{
					OFFSET 0.000000 -4.945160 -1.799890 
					CHANNELS 3 Xrotation Yrotation Zrotation
					End Site
					{
						OFFSET 0.000000 -2.820300 -0.000000 
					}
				}
			}
		}
	}
}
MOTION
Frames: 13
Frame Time: 0.008333
39.763901 36.487499 -3.740100 -88.188499 0.075200 -0.574800 -0.339600 0.233000 -0.312000 0.499100 0.090600 0.000900 1.035600 -1.332100 -0.226500 -0.509600 -0.238600 0.179400 -2.058500 -2.380100 -0.496200 -5.616100 6.512000 1.542200 5.270000 -4.694300 -0.371500 30.607300 -54.375900 29.335899 0.000000 0.000000 29.146099 0.352500 -6.386200 -5.966900 -0.000000 -0.000000 0.000000 -0.000000 -0.000000 0.000000 2.816400 11.998000 0.561600 14.178600 57.578400 -7.039800 -0.000000 -0.000000 -39.775002 5.195700 10.981300 13.850800 -0.000000 -0.000000 -0.000000 -0.000000 0.000000 -0.000000 0.017900 2.229100 -11.780200 15.699600 0.000000 0.000000 -15.162200 -2.266100 -2.554600 -1.247500 0.000000 -0.000000 1.337200 -4.563500 5.865900 12.603400 0.000000 0.000000 -17.135000 5.177000 1.096800 -0.583500 0.000000 -0.000000 
39.748100 36.486301 -3.732400 -88.170097 0.070100 -0.563700 -0.326200 0.223800 -0.316600 0.511400 0.088400 0.001100 1.038800 -1.293300 -0.226800 -0.510600 -0.237500 0.174700 -2.056100 -2.401300 -0.512100 -5.600800 6.518300 1.535000 5.293400 -4.724500 -0.359400 31.102100 -54.344398 29.753700 0.000000 0.000000 29.140900 0.155600 -6.351300 -5.929200 -0.000000 -0.000000 -0.000000 0.000000 -0.000000 -0.000000 2.799000 11.953500 0.560600 14.390600 57.709702 -7.195700 -0.000000 -0.000000 -39.599400 5.200600 11.115200 13.955800 -0.000000 -0.000000 -0.000000 -0.000000 0.000000 0.000000 0.007400 2.211800 -11.813900 15.714900 0.000000 0.000000 -15.185500 -2.249800 -2.532400 -1.249000 0.000000 -0.000000 1.330800 -4.585100 5.854900 12.599900 0.000000 0.000000 -17.133499 5.202700 1.101800 -0.579500 0.000000 -0.000000 
39.731602 36.485001 -3.724100 -88.149200 0.066600 -0.553200 -0.313200 0.215600 -0.319600 0.521100 0.083800 0.000700 1.041500 -1.256800 -0.228500 -0.510400 -0.234800 0.169900 -2.054600 -2.418600 -0.526100 -5.586900 6.520000 1.528500 5.320400 -4.756600 -0.346400 31.614500 -54.310600 30.185499 0.000000 0.000000 29.131800 -0.104800 -6.343200 -6.003900 -0.000000 -0.000000 -0.000000 -0.000000 -0.000000 0.000000 2.779200 11.900000 0.561400 14.659300 57.846199 -7.388900 -0.000000 -0.000000 -39.407398 5.167000 11.208200 14.007000 0.000000 0.000000 0.000000 -0.000000 0.000000 -0.000000 -0.004600 2.191500 -11.846500 15.729700 0.000000 0.000000 -15.208900 -2.232200 -2.510900 -1.250900 0.000000 -0.000000 1.321700 -4.610100 5.848600 12.598600 0.000000 0.000000 -17.133200 5.230800 1.103000 -0.575800 0.000000 -0.000000 
39.714298 36.483501 -3.715700 -88.123100 0.066100 -0.542700 -0.300100 0.210700 -0.320900 0.526300 0.075500 -0.000500 1.041100 -1.226700 -0.231900 -0.508400 -0.230300 0.164900 -2.052900 -2.430900 -0.537100 -5.574100 6.517500 1.521100 5.350800 -4.788600 -0.335100 32.134800 -54.275398 30.624599 0.000000 0.000000 29.122000 -0.402100 -6.366700 -6.163900 0.000000 0.000000 -0.000000 0.000000 -0.000000 -0.000000 2.763200 11.847900 0.567000 14.935900 57.984798 -7.585800 -0.000000 -0.000000 -39.203602 5.120900 11.293100 14.018900 -0.000000 -0.000000 0.000000 -0.000000 0.000000 -0.000000 -0.021600 2.166300 -11.877400 15.744400 0.000000 0.000000 -15.232600 -2.212900 -2.491300 -1.253000 0.000000 -0.000000 1.305100 -4.640600 5.847600 12.602700 0.000000 0.000000 -17.135799 5.261600 1.098900 -0.572000 0.000000 -0.000000 
39.696301 36.481800 -3.705900 -88.095299 0.067400 -0.538400 -0.288500 0.206600 -0.322800 0.524300 0.063600 -0.002200 1.044300 -1.199000 -0.229600 -0.503900 -0.224100 0.161000 -2.050800 -2.438500 -0.545000 -5.561900 6.511900 1.512300 5.385300 -4.821700 -0.326000 32.670101 -54.233700 31.078699 0.000000 0.000000 29.102900 -0.715200 -6.391300 -6.352400 -0.000000 -0.000000 -0.000000 0.000000 -0.000000 0.000000 2.754500 11.800900 0.576900 15.214200 58.119301 -7.788500 -0.000000 -0.000000 -38.966702 5.031800 11.390900 13.919800 0.000000 -0.000000 0.000000 0.000000 0.000000 0.000000 -0.037800 2.137900 -11.901800 15.756600 0.000000 0.000000 -15.256500 -2.192700 -2.472000 -1.255300 0.000000 -0.000000 1.291200 -4.674300 5.858000 12.604900 0.000000 0.000000 -17.139400 5.294900 1.090300 -0.568600 0.000000 -0.000000 
39.677799 36.480099 -3.695200 -88.067596 0.068900 -0.537200 -0.278100 0.201500 -0.324800 0.519000 0.051000 -0.003900 1.051000 -1.171700 -0.224000 -0.498000 -0.215700 0.158000 -2.049000 -2.444800 -0.551200 -5.550600 6.504200 1.502200 5.420300 -4.853500 -0.319300 33.196701 -54.207100 31.529100 0.000000 0.000000 29.067499 -0.948000 -6.419800 -6.510200 0.000000 -0.000000 0.000000 0.000000 0.000000 0.000000 2.767400 11.778900 0.584200 15.483300 58.221699 -8.012200 -0.000000 -0.000000 -38.687599 4.967500 11.589900 13.852200 -0.000000 -0.000000 0.000000 -0.000000 -0.000000 0.000000 -0.051600 2.108400 -11.923600 15.766800 0.000000 0.000000 -15.280500 -2.172100 -2.452200 -1.257900 0.000000 -0.000000 1.280600 -4.709200 5.875100 12.605200 0.000000 0.000000 -17.142700 5.329900 1.078700 -0.565700 0.000000 -0.000000 
39.658901 36.478401 -3.684700 -88.037102 0.071700 -0.532300 -0.267100 0.197000 -0.324500 0.514400 0.037900 -0.005900 1.054900 -1.147700 -0.221800 -0.492300 -0.206600 0.153800 -2.048200 -2.446600 -0.553800 -5.541100 6.492800 1.488900 5.456200 -4.889500 -0.316100 33.764198 -54.151699 32.014500 0.000000 0.000000 29.021700 -1.079200 -6.457100 -6.599500 0.000000 -0.000000 -0.000000 -0.000000 0.000000 -0.000000 2.789400 11.756400 0.584200 15.715500 58.329700 -8.193600 -0.000000 -0.000000 -38.403999 4.858800 11.766500 13.648400 0.000000 -0.000000 -0.000000 0.000000 0.000000 0.000000 -0.068400 2.076600 -11.948100 15.777200 0.000000 0.000000 -15.304200 -2.150500 -2.433600 -1.260800 0.000000 -0.000000 1.263100 -4.747000 5.892300 12.611500 0.000000 0.000000 -17.146900 5.366600 1.063700 -0.563300 0.000000 -0.000000 
39.639599 36.476601 -3.674100 -88.004799 0.075400 -0.526400 -0.256100 0.192300 -0.323100 0.508900 0.024300 -0.008000 1.058500 -1.125900 -0.219800 -0.486100 -0.196400 0.149300 -2.047800 -2.445600 -0.553500 -5.533400 6.478800 1.473400 5.492100 -4.927500 -0.316200 34.341400 -54.089401 32.510201 0.000000 0.000000 28.962999 -1.113000 -6.503600 -6.635500 -0.000000 0.000000 -0.000000 -0.000000 0.000000 -0.000000 2.823400 11.740600 0.579000 15.923100 58.434299 -8.352200 -0.000000 -0.000000 -38.139000 4.789800 11.931300 13.495900 0.000000 -0.000000 -0.000000 -0.000000 -0.000000 0.000000 -0.086400 2.042900 -11.973100 15.787100 0.000000 0.000000 -15.327800 -2.128100 -2.415600 -1.264100 0.000000 -0.000000 1.242200 -4.787100 5.912500 12.621100 0.000000 0.000000 -17.151800 5.404700 1.045100 -0.561300 0.000000 -0.000000 
39.619900 36.474701 -3.663200 -87.970596 0.080000 -0.519400 -0.245300 0.187500 -0.320900 0.502500 0.010200 -0.010300 1.062000 -1.106000 -0.217900 -0.479800 -0.185200 0.144600 -2.047600 -2.442300 -0.550600 -5.527300 6.463100 1.455600 5.527400 -4.967200 -0.319900 34.927299 -54.020500 33.014900 0.000000 0.000000 28.892000 -1.103800 -6.561100 -6.652200 0.000000 -0.000000 0.000000 -0.000000 -0.000000 0.000000 2.865500 11.726400 0.571100 16.122400 58.540199 -8.503500 -0.000000 -0.000000 -37.889000 4.759300 12.067400 13.395200 0.000000 -0.000000 0.000000 0.000000 -0.000000 -0.000000 -0.105600 2.007600 -11.998200 15.796300 0.000000 0.000000 -15.351200 -2.105100 -2.398400 -1.267600 0.000000 -0.000000 1.217700 -4.829400 5.935700 12.634300 0.000000 0.000000 -17.157301 5.444400 1.022900 -0.559900 0.000000 -0.000000 
39.599899 36.472900 -3.652300 -87.934700 0.085600 -0.511500 -0.234600 0.182300 -0.317900 0.495200 -0.004200 -0.012700 1.065600 -1.087800 -0.215600 -0.473600 -0.173100 0.139800 -2.048200 -2.438200 -0.545900 -5.521400 6.447800 1.435300 5.560700 -5.006700 -0.327000 35.522400 -53.945301 33.528400 0.000000 0.000000 28.809200 -1.061900 -6.627200 -6.643400 0.000000 0.000000 -0.000000 0.000000 0.000000 -0.000000 2.915700 11.715300 0.563200 16.354900 58.640900 -8.695700 -0.000000 -0.000000 -37.612400 4.748800 12.118600 13.244700 -0.000000 0.000000 0.000000 0.000000 -0.000000 0.000000 -0.126000 1.970500 -12.023600 15.805100 0.000000 0.000000 -15.374200 -2.081500 -2.382100 -1.271500 0.000000 -0.000000 1.189400 -4.873800 5.962100 12.651600 0.000000 0.000000 -17.163500 5.485600 0.996900 -0.559000 0.000000 -0.000000 
39.579498 36.471001 -3.641200 -87.896896 0.092200 -0.501600 -0.223900 0.176800 -0.314300 0.487100 -0.017700 -0.015100 1.069300 -1.071600 -0.213700 -0.467600 -0.160300 0.135100 -2.050100 -2.435700 -0.540600 -5.515100 6.434800 1.412800 5.589800 -5.041300 -0.338000 36.137402 -53.867802 34.059101 0.000000 0.000000 28.713200 -0.971200 -6.693100 -6.619600 -0.000000 -0.000000 -0.000000 -0.000000 0.000000 -0.000000 2.973700 11.708600 0.557200 16.593000 58.735500 -8.902600 -0.000000 -0.000000 -37.331799 4.768900 12.129100 13.095900 0.000000 -0.000000 -0.000000 0.000000 -0.000000 -0.000000 -0.147600 1.931400 -12.049300 15.813100 0.000000 0.000000 -15.397100 -2.057000 -2.367400 -1.275600 0.000000 -0.000000 1.156900 -4.920800 5.991400 12.673400 0.000000 0.000000 -17.170300 5.528400 0.966400 -0.558800 0.000000 -0.000000 
39.558701 36.469002 -3.630100 -87.857201 0.099800 -0.489100 -0.213400 0.170700 -0.310300 0.478300 -0.029400 -0.017300 1.073300 -1.057300 -0.212500 -0.462000 -0.147600 0.130500 -2.053000 -2.435800 -0.535100 -5.508800 6.425000 1.388600 5.612000 -5.065800 -0.353600 36.782902 -53.792702 34.614799 0.000000 0.000000 28.604099 -0.812500 -6.748800 -6.591300 -0.000000 0.000000 -0.000000 0.000000 -0.000000 -0.000000 3.035600 11.700200 0.554300 16.844000 58.829700 -9.123500 -0.000000 -0.000000 -37.071899 4.908900 12.165300 12.989100 0.000000 0.000000 -0.000000 0.000000 -0.000000 0.000000 -0.170300 1.890100 -12.075400 15.820300 0.000000 0.000000 -15.419700 -2.031500 -2.355000 -1.280000 0.000000 -0.000000 1.119500 -4.970500 6.023600 12.700100 0.000000 0.000000 -17.177799 5.573200 0.930600 -0.559100 0.000000 -0.000000 
39.537498 36.466999 -3.618900 -87.815804 0.108500 -0.474000 -0.200800 0.164200 -0.306000 0.470100 -0.039300 -0.019300 1.073800 -1.044900 -0.212000 -0.458100 -0.135200 0.125900 -2.055400 -2.437800 -0.528500 -5.503100 6.417800 1.362700 5.629700 -5.082100 -0.372500 37.455700 -53.715302 35.192699 0.000000 0.000000 28.484100 -0.576400 -6.799700 -6.574400 0.000000 0.000000 -0.000000 0.000000 -0.000000 -0.000000 3.099300 11.684900 0.555600 17.156099 58.924801 -9.406800 -0.000000 -0.000000 -36.805099 4.959900 12.007200 12.936400 -0.000000 -0.000000 0.000000 -0.000000 -0.000000 0.000000 -0.193900 1.846700 -12.101800 15.826600 0.000000 0.000000 -15.442200 -2.005100 -2.344800 -1.284900 0.000000 -0.000000 1.077500 -5.022800 6.058600 12.732100 0.000000 0.000000 -17.185900 5.619800 0.889600 -0.560100 0.000000 -0.000000 
